<svg width="200" height="61" viewBox="0 0 200 61" fill="none" xmlns="http://www.w3.org/2000/svg">
<path d="M64.3 32.3V45.1H61.5V40H57.6V45.1H54.8V32.3H57.6V37.3H61.5V32.3H64.3Z" fill="black"/>
<path d="M73.6 41.8C73.6 43.9 73 45.3 69.3 45.3C68.5 45.3 67.6 45.3 66.6 45.1V42.5C67.4 42.6 68.2 42.7 69.1 42.7C70.4 42.7 70.7 42.5 70.7 41.3V35H67.2V32.4H73.6C73.6 32.3 73.6 41.8 73.6 41.8Z" fill="black"/>
<path d="M84.5 42.5V45.1H76.7V32.3H84.5V34.9H79.5V37.2H83.3V39.8H79.5V42.4L84.5 42.5Z" fill="black"/>
<path d="M86.9 32.3H89.8L93.4 39.1L97.2 32.3H99.9V45.1H97.1V37.7L94.5 42.6H92.5L89.9 37.7V45.1H87.1L86.9 32.3Z" fill="black"/>
<path d="M103.1 32.3H106L109.6 39.1L113.4 32.3H116.1V45.1H113.3V37.7L110.7 42.6H108.7L106.1 37.7V45.1H103.3L103.1 32.3Z" fill="black"/>
<path d="M127.1 42.5V45.1H119.3V32.3H127.1V34.9H122.1V37.2H125.9V39.8H122.1V42.4L127.1 42.5Z" fill="black"/>
<path d="M131.2 43.7L128.9 32.3H131.9L133.7 42.3C133.8 42.6 133.8 42.7 134.2 42.7C134.6 42.7 134.6 42.6 134.7 42.3L136.5 32.3H139.5L137.2 43.7C136.9 45 136.5 45.3 134.2 45.3C131.9 45.3 131.5 45 131.2 43.7Z" fill="black"/>
<path d="M153.7 42.4V45.1H147.1V41.7H144L143.3 45.1H140.3L142.7 34.4C143.1 32.7 143.4 32.4 145.9 32.4H153.6V35H149.9V37.4H152.6V39.9H149.9V42.4H153.7ZM147.1 34.9H146.2C145.4 34.9 145.3 35 145.2 35.8L144.5 39.1H147.1V34.9Z" fill="black"/>
<path d="M160.6 41L159 41.7V45.1H156.2V32.3H161C163.8 32.3 165.1 33 165.1 35.9V36.2C165.1 38.7 164.7 39.4 163.3 39.9L163.2 40L165.8 45H162.6L160.6 41ZM159 38.8L161.4 38C162 37.8 162.3 37.6 162.3 36.6V36.3C162.3 35.2 162 34.9 161.1 34.9H159V38.8Z" fill="black"/>
<path d="M168.1 32.3H170.5L174.8 39.4V32.3H177.6V45.1H175.2L170.9 38.1V45.1H168.1V32.3Z" fill="black"/>
<path d="M188.7 42.5V45.1H180.9V32.3H188.7V34.9H183.7V37.2H187.5V39.8H183.7V42.4L188.7 42.5Z" fill="black"/>
<path d="M199.1 34.9H196.1V45.1H193.3V34.9H190.1V32.3H199.1V34.9Z" fill="black"/>
<path d="M19.7 56.1C10.8 55.1 3.8 47.6 3.8 38.4C3.8 34.2 5.3 30.3 7.7 27.2L5 24.5C1.9 28.3 0 33.1 0 38.4C0 49.7 8.7 59 19.7 60V56.1Z" fill="black"/>
<path d="M35.5 27.3C38 30.4 39.4 34.2 39.4 38.5C39.4 47.7 32.4 55.2 23.5 56.2V60.1C34.6 59 43.3 49.8 43.3 38.5C43.3 33.2 41.4 28.4 38.3 24.6C38.2 24.6 35.5 27.3 35.5 27.3Z" fill="black"/>
<path d="M17.4 32.3V45.1H14.6V40H11.5V45.1H8.7V32.3H11.5V37.3H14.6V32.3H17.4Z" fill="black"/>
<path d="M24.4 41.8C24.4 43.9 23.8 45.3 20.1 45.3C19.3 45.3 19.2 45.3 18.1 45.1V42.5C18.9 42.6 18.9 42.7 19.9 42.7C21.2 42.7 21.5 42.5 21.5 41.3V32.4H24.3L24.4 41.8Z" fill="black"/>
<path d="M27.5 43.7L25.2 32.3H28.2L30 42.3C30.1 42.6 30.1 42.7 30.5 42.7C30.9 42.7 30.9 42.6 31 42.3L32.8 32.3H35.8L33.5 43.7C33.2 45 32.8 45.3 30.5 45.3C28.2 45.3 27.7 45 27.5 43.7Z" fill="black"/>
<path d="M31 11.5C31.6 11.5 31.9 11.8 31.9 12.2C31.9 12.4 31.8 12.7 31.6 12.9L27.8 17.4H30.6L33.2 14.4C33.9 13.6 34.2 12.8 34.2 12.1C34.2 10.6 32.9 9.4 31.1 9.4H30.7V11.5H31Z" fill="black"/>
<path d="M12.2 11.5H12.5V9.4H12.1C10.3 9.4 9 10.6 9 12.1C9 12.9 9.3 13.7 10 14.4L12.6 17.4H15.4L11.6 13C11.4 12.8 11.3 12.5 11.3 12.3C11.3 11.8 11.7 11.5 12.2 11.5Z" fill="black"/>
<path d="M16.7 11.5H19.2V9.4H16.8C14.8 9.4 13.5 10.6 13.5 12.1C13.5 12.9 13.8 13.7 14.5 14.4L17 17.4H19.8L16 12.9C15.8 12.7 15.7 12.4 15.7 12.2C15.7 11.8 16.1 11.5 16.7 11.5Z" fill="black"/>
<path d="M26.6 11.5C27.2 11.5 27.5 11.8 27.5 12.2C27.5 12.4 27.4 12.7 27.2 12.9L23.4 17.4H26.2L28.7 14.4C29.3 13.6 29.7 12.8 29.7 12.1C29.7 10.6 28.4 9.4 26.4 9.4H24V11.5H26.6Z" fill="black"/>
<path d="M22.7 9.4H20.5V17.5H22.7V9.4Z" fill="black"/>
<path d="M29.9 18.9H13.3V22.7H29.9V18.9Z" fill="black"/>
<path d="M21.6 8.4C22.7046 8.4 23.6 7.50457 23.6 6.4C23.6 5.29543 22.7046 4.4 21.6 4.4C20.4954 4.4 19.6 5.29543 19.6 6.4C19.6 7.50457 20.4954 8.4 21.6 8.4Z" fill="black"/>
<path d="M21.1 1.2H19.8V2.2H21.1V3.4H22.2V2.2H23.5V1.2H22.2V0H21.1V1.2Z" fill="black"/>
</svg>
