<svg width="47" height="63" viewBox="0 0 47 63" fill="none" xmlns="http://www.w3.org/2000/svg">
<path d="M21.0424 58.6385C11.5359 57.5932 4.05894 49.7538 4.05894 40.1376C4.05894 35.7475 5.66116 31.671 8.2247 28.4308L5.34072 25.6086C2.02947 29.5805 0 34.5977 0 40.1376C0 51.9489 9.29285 61.6697 21.0424 62.7149V58.6385Z" fill="black"/>
<path d="M37.9191 28.5353C40.5894 31.7756 42.0848 35.7475 42.0848 40.2421C42.0848 49.8584 34.6078 57.6977 25.1014 58.743V62.8195C36.9578 61.6697 46.2506 52.0534 46.2506 40.2421C46.2506 34.7023 44.2211 29.6851 40.9099 25.7131C40.8031 25.7131 37.9191 28.5353 37.9191 28.5353Z" fill="black"/>
<path d="M18.5857 33.7615V47.1407H15.5949V41.81H12.2836V47.1407H9.29285V33.7615H12.2836V38.9878H15.5949V33.7615H18.5857Z" fill="black"/>
<path d="M26.0627 43.6914C26.0627 45.8864 25.4218 47.3498 21.4697 47.3498C20.6152 47.3498 20.5083 47.3498 19.3334 47.1407V44.4231C20.1879 44.5276 20.1879 44.6321 21.256 44.6321C22.6446 44.6321 22.9651 44.4231 22.9651 43.1688V33.8661H25.9559L26.0627 43.6914Z" fill="black"/>
<path d="M29.3739 45.6774L26.9172 33.7615H30.1216L32.0443 44.214C32.1511 44.5276 32.1511 44.6321 32.5784 44.6321C33.0056 44.6321 33.0056 44.5276 33.1124 44.214L35.0351 33.7615H38.2395L35.7828 45.6774C35.4624 47.0362 35.0351 47.3498 32.5784 47.3498C30.1216 47.3498 29.5876 47.0362 29.3739 45.6774Z" fill="black"/>
<path d="M33.1124 12.0204C33.7533 12.0204 34.0738 12.3339 34.0738 12.752C34.0738 12.9611 33.967 13.2747 33.7533 13.4837L29.6944 18.1873H32.6852L35.4623 15.0516C36.21 14.2154 36.5305 13.3792 36.5305 12.6475C36.5305 11.0796 35.1419 9.82534 33.2193 9.82534H32.792V12.0204H33.1124Z" fill="black"/>
<path d="M13.0313 12.0204H13.3518V9.82534H12.9245C11.0019 9.82534 9.61329 11.0796 9.61329 12.6475C9.61329 13.4837 9.93373 14.3199 10.6814 15.0516L13.4586 18.1873H16.4494L12.3905 13.5882C12.1768 13.3792 12.07 13.0656 12.07 12.8566C12.07 12.3339 12.4973 12.0204 13.0313 12.0204Z" fill="black"/>
<path d="M17.838 12.0204H20.5083V9.82534H17.9448C15.8085 9.82534 14.4199 11.0796 14.4199 12.6475C14.4199 13.4837 14.7404 14.3199 15.4881 15.0516L18.1584 18.1873H21.1492L17.0903 13.4837C16.8767 13.2747 16.7698 12.9611 16.7698 12.752C16.7698 12.3339 17.1971 12.0204 17.838 12.0204Z" fill="black"/>
<path d="M28.4126 12.0204C29.0535 12.0204 29.3739 12.3339 29.3739 12.752C29.3739 12.9611 29.2671 13.2747 29.0535 13.4837L24.9945 18.1873H27.9854L30.6557 15.0516C31.2966 14.2154 31.7239 13.3792 31.7239 12.6475C31.7239 11.0796 30.3353 9.82534 28.199 9.82534H25.6354V12.0204H28.4126Z" fill="black"/>
<path d="M24.2468 9.82534H21.8969V18.2919H24.2468V9.82534Z" fill="black"/>
<path d="M31.9375 19.7552H14.2063V23.7271H31.9375V19.7552Z" fill="black"/>
<path d="M23.0719 8.78009C24.2517 8.78009 25.2082 7.84414 25.2082 6.68959C25.2082 5.53504 24.2517 4.5991 23.0719 4.5991C21.8921 4.5991 20.9356 5.53504 20.9356 6.68959C20.9356 7.84414 21.8921 8.78009 23.0719 8.78009Z" fill="black"/>
<path d="M22.5378 1.2543H21.1492V2.29955H22.5378V3.55385H23.7128V2.29955H25.1014V1.2543H23.7128V0H22.5378V1.2543Z" fill="black"/>
</svg>
